<mxfile host="Electron" modified="2024-02-26T01:02:55.055Z" agent="Mozilla/5.0 (Windows NT 10.0; Win64; x64) AppleWebKit/537.36 (KHTML, like Gecko) draw.io/23.0.2 Chrome/120.0.6099.109 Electron/28.1.0 Safari/537.36" etag="Kn5wQX8VgLuCOZZstkeu" version="23.0.2" type="device">
  <diagram name="Page-1" id="Z_TeVVmK9oxKkqYn3YNV">
    <mxGraphModel dx="2874" dy="1605" grid="0" gridSize="10" guides="1" tooltips="1" connect="1" arrows="1" fold="1" page="0" pageScale="1" pageWidth="827" pageHeight="1169" math="0" shadow="0">
      <root>
        <mxCell id="0" />
        <mxCell id="1" parent="0" />
        <mxCell id="rmnr_J1hxA6vP5XFYLHo-39" style="edgeStyle=orthogonalEdgeStyle;rounded=0;orthogonalLoop=1;jettySize=auto;html=1;fontFamily=Helvetica;fontSize=12;fontColor=default;" edge="1" parent="1" source="rmnr_J1hxA6vP5XFYLHo-7" target="rmnr_J1hxA6vP5XFYLHo-38">
          <mxGeometry relative="1" as="geometry" />
        </mxCell>
        <mxCell id="rmnr_J1hxA6vP5XFYLHo-7" value="Product Configuration" style="rounded=0;whiteSpace=wrap;html=1;shadow=1;glass=1;comic=1;sketch=1;jiggle=2;curveFitting=1;strokeColor=default;align=center;verticalAlign=top;fontFamily=Helvetica;fontSize=12;fontColor=default;fillColor=default;" vertex="1" parent="1">
          <mxGeometry x="-106" y="-76" width="180" height="251" as="geometry" />
        </mxCell>
        <mxCell id="rmnr_J1hxA6vP5XFYLHo-13" style="edgeStyle=orthogonalEdgeStyle;rounded=0;orthogonalLoop=1;jettySize=auto;html=1;entryX=0.5;entryY=0;entryDx=0;entryDy=0;fontFamily=Helvetica;fontSize=12;fontColor=default;" edge="1" parent="1" source="rmnr_J1hxA6vP5XFYLHo-14" target="rmnr_J1hxA6vP5XFYLHo-15">
          <mxGeometry relative="1" as="geometry" />
        </mxCell>
        <mxCell id="rmnr_J1hxA6vP5XFYLHo-14" value="Product Configurator" style="shape=umlActor;verticalLabelPosition=bottom;verticalAlign=top;html=1;outlineConnect=0;comic=1;shadow=1;sketch=1;curveFitting=1;jiggle=2;" vertex="1" parent="1">
          <mxGeometry x="-29" y="-251" width="30" height="60" as="geometry" />
        </mxCell>
        <mxCell id="rmnr_J1hxA6vP5XFYLHo-15" value="UI (XAF) ADMIN TOOL" style="rounded=1;whiteSpace=wrap;html=1;comic=1;sketch=1;curveFitting=1;jiggle=2;glass=1;shadow=1;fillColor=#b1ddf0;strokeColor=#10739e;" vertex="1" parent="1">
          <mxGeometry x="-74" y="-33" width="120" height="60" as="geometry" />
        </mxCell>
        <mxCell id="rmnr_J1hxA6vP5XFYLHo-16" value="SQL DB" style="shape=cylinder3;whiteSpace=wrap;html=1;boundedLbl=1;backgroundOutline=1;size=15;comic=1;strokeColor=default;align=center;verticalAlign=top;fontFamily=Helvetica;fontSize=12;fontColor=default;fillColor=default;sketch=1;curveFitting=1;jiggle=2;shadow=1;" vertex="1" parent="1">
          <mxGeometry x="-44" y="68" width="60" height="80" as="geometry" />
        </mxCell>
        <mxCell id="rmnr_J1hxA6vP5XFYLHo-17" style="edgeStyle=orthogonalEdgeStyle;rounded=0;orthogonalLoop=1;jettySize=auto;html=1;entryX=0.5;entryY=0;entryDx=0;entryDy=0;entryPerimeter=0;fontFamily=Helvetica;fontSize=12;fontColor=default;" edge="1" parent="1" source="rmnr_J1hxA6vP5XFYLHo-15" target="rmnr_J1hxA6vP5XFYLHo-16">
          <mxGeometry relative="1" as="geometry" />
        </mxCell>
        <mxCell id="rmnr_J1hxA6vP5XFYLHo-22" value="GraphQL" style="edgeStyle=orthogonalEdgeStyle;rounded=0;orthogonalLoop=1;jettySize=auto;html=1;entryX=0.5;entryY=0;entryDx=0;entryDy=0;fontFamily=Helvetica;fontSize=12;fontColor=default;" edge="1" parent="1" source="rmnr_J1hxA6vP5XFYLHo-18" target="rmnr_J1hxA6vP5XFYLHo-20">
          <mxGeometry relative="1" as="geometry" />
        </mxCell>
        <mxCell id="rmnr_J1hxA6vP5XFYLHo-18" value="API GATEWAY (NODE-RED)" style="rounded=1;whiteSpace=wrap;html=1;shadow=1;glass=1;comic=1;sketch=1;jiggle=2;curveFitting=1;strokeColor=#6c8ebf;align=center;verticalAlign=middle;fontFamily=Helvetica;fontSize=12;fillColor=#dae8fc;" vertex="1" parent="1">
          <mxGeometry x="292" y="87" width="532" height="60" as="geometry" />
        </mxCell>
        <mxCell id="rmnr_J1hxA6vP5XFYLHo-55" style="edgeStyle=orthogonalEdgeStyle;rounded=0;orthogonalLoop=1;jettySize=auto;html=1;entryX=0.5;entryY=0;entryDx=0;entryDy=0;fontFamily=Helvetica;fontSize=12;fontColor=default;" edge="1" parent="1" source="rmnr_J1hxA6vP5XFYLHo-20" target="rmnr_J1hxA6vP5XFYLHo-51">
          <mxGeometry relative="1" as="geometry" />
        </mxCell>
        <mxCell id="rmnr_J1hxA6vP5XFYLHo-20" value="Reference Data" style="rounded=1;whiteSpace=wrap;html=1;shadow=1;glass=1;comic=1;sketch=1;jiggle=2;curveFitting=1;strokeColor=#d79b00;align=center;verticalAlign=middle;fontFamily=Helvetica;fontSize=12;fillColor=#ffe6cc;" vertex="1" parent="1">
          <mxGeometry x="287" y="270" width="120" height="60" as="geometry" />
        </mxCell>
        <mxCell id="rmnr_J1hxA6vP5XFYLHo-21" value="API" style="rounded=1;whiteSpace=wrap;html=1;shadow=1;glass=1;comic=1;sketch=1;jiggle=2;curveFitting=1;strokeColor=#d79b00;align=center;verticalAlign=middle;fontFamily=Helvetica;fontSize=12;fillColor=#ffe6cc;" vertex="1" parent="1">
          <mxGeometry x="-501" y="54" width="120" height="60" as="geometry" />
        </mxCell>
        <mxCell id="rmnr_J1hxA6vP5XFYLHo-29" style="edgeStyle=orthogonalEdgeStyle;rounded=0;orthogonalLoop=1;jettySize=auto;html=1;fontFamily=Helvetica;fontSize=12;fontColor=default;entryX=0.5;entryY=0;entryDx=0;entryDy=0;" edge="1" parent="1" source="rmnr_J1hxA6vP5XFYLHo-27" target="rmnr_J1hxA6vP5XFYLHo-45">
          <mxGeometry relative="1" as="geometry">
            <mxPoint x="424.8000000000002" y="-91" as="targetPoint" />
          </mxGeometry>
        </mxCell>
        <mxCell id="rmnr_J1hxA6vP5XFYLHo-27" value="User" style="shape=umlActor;verticalLabelPosition=bottom;verticalAlign=top;html=1;outlineConnect=0;comic=1;shadow=1;sketch=1;curveFitting=1;jiggle=2;" vertex="1" parent="1">
          <mxGeometry x="409.75" y="-251" width="30" height="60" as="geometry" />
        </mxCell>
        <mxCell id="rmnr_J1hxA6vP5XFYLHo-48" style="edgeStyle=orthogonalEdgeStyle;rounded=0;orthogonalLoop=1;jettySize=auto;html=1;entryX=0.5;entryY=1;entryDx=0;entryDy=0;fontFamily=Helvetica;fontSize=12;fontColor=default;" edge="1" parent="1" source="rmnr_J1hxA6vP5XFYLHo-33" target="rmnr_J1hxA6vP5XFYLHo-34">
          <mxGeometry relative="1" as="geometry" />
        </mxCell>
        <mxCell id="rmnr_J1hxA6vP5XFYLHo-33" value="Nightly Scheduler" style="image;aspect=fixed;html=1;points=[];align=center;fontSize=12;image=img/lib/azure2/general/Scheduler.svg;rounded=1;shadow=1;glass=1;comic=1;sketch=1;jiggle=2;curveFitting=1;strokeColor=default;verticalAlign=middle;fontFamily=Helvetica;fontColor=default;fillColor=default;" vertex="1" parent="1">
          <mxGeometry x="-50" y="591" width="68" height="68" as="geometry" />
        </mxCell>
        <mxCell id="rmnr_J1hxA6vP5XFYLHo-56" style="edgeStyle=orthogonalEdgeStyle;rounded=0;orthogonalLoop=1;jettySize=auto;html=1;entryX=0;entryY=0.5;entryDx=0;entryDy=0;fontFamily=Helvetica;fontSize=12;fontColor=default;" edge="1" parent="1" source="rmnr_J1hxA6vP5XFYLHo-34" target="rmnr_J1hxA6vP5XFYLHo-51">
          <mxGeometry relative="1" as="geometry" />
        </mxCell>
        <mxCell id="rmnr_J1hxA6vP5XFYLHo-34" value="Data Processor" style="shape=process;whiteSpace=wrap;html=1;backgroundOutline=1;rounded=1;shadow=1;glass=1;comic=1;sketch=1;jiggle=2;curveFitting=1;strokeColor=default;align=center;verticalAlign=middle;fontFamily=Helvetica;fontSize=12;fontColor=default;fillColor=default;" vertex="1" parent="1">
          <mxGeometry x="-76" y="472" width="120" height="60" as="geometry" />
        </mxCell>
        <mxCell id="rmnr_J1hxA6vP5XFYLHo-42" style="edgeStyle=orthogonalEdgeStyle;rounded=0;orthogonalLoop=1;jettySize=auto;html=1;entryX=0.5;entryY=0;entryDx=0;entryDy=0;fontFamily=Helvetica;fontSize=12;fontColor=default;" edge="1" parent="1" source="rmnr_J1hxA6vP5XFYLHo-36" target="rmnr_J1hxA6vP5XFYLHo-34">
          <mxGeometry relative="1" as="geometry" />
        </mxCell>
        <mxCell id="rmnr_J1hxA6vP5XFYLHo-36" value="Queue" style="sketch=0;outlineConnect=0;fontColor=#232F3E;gradientColor=none;strokeColor=#232F3E;fillColor=#ffffff;dashed=0;verticalLabelPosition=bottom;verticalAlign=top;align=center;html=1;fontSize=12;fontStyle=0;aspect=fixed;shape=mxgraph.aws4.resourceIcon;resIcon=mxgraph.aws4.queue;rounded=1;shadow=1;glass=1;comic=1;jiggle=2;curveFitting=1;fontFamily=Helvetica;" vertex="1" parent="1">
          <mxGeometry x="-46" y="335" width="60" height="60" as="geometry" />
        </mxCell>
        <mxCell id="rmnr_J1hxA6vP5XFYLHo-40" style="edgeStyle=orthogonalEdgeStyle;rounded=0;orthogonalLoop=1;jettySize=auto;html=1;fontFamily=Helvetica;fontSize=12;fontColor=default;" edge="1" parent="1" source="rmnr_J1hxA6vP5XFYLHo-38" target="rmnr_J1hxA6vP5XFYLHo-36">
          <mxGeometry relative="1" as="geometry" />
        </mxCell>
        <mxCell id="rmnr_J1hxA6vP5XFYLHo-38" value="Modify Event" style="sketch=0;outlineConnect=0;fontColor=#232F3E;gradientColor=none;strokeColor=#232F3E;fillColor=#ffffff;dashed=0;verticalLabelPosition=bottom;verticalAlign=top;align=center;html=1;fontSize=12;fontStyle=0;aspect=fixed;shape=mxgraph.aws4.resourceIcon;resIcon=mxgraph.aws4.event_event_based;rounded=1;shadow=1;glass=1;comic=1;jiggle=2;curveFitting=1;fontFamily=Helvetica;" vertex="1" parent="1">
          <mxGeometry x="-46" y="217" width="60" height="60" as="geometry" />
        </mxCell>
        <mxCell id="rmnr_J1hxA6vP5XFYLHo-43" value="GATEWAY" style="rounded=1;whiteSpace=wrap;html=1;shadow=1;glass=1;comic=1;sketch=1;jiggle=2;curveFitting=1;strokeColor=#6c8ebf;align=center;verticalAlign=middle;fontFamily=Helvetica;fontSize=12;fillColor=#dae8fc;" vertex="1" parent="1">
          <mxGeometry x="-502" y="-211" width="125" height="60" as="geometry" />
        </mxCell>
        <mxCell id="rmnr_J1hxA6vP5XFYLHo-44" value="WEB APP" style="rounded=1;whiteSpace=wrap;html=1;comic=1;sketch=1;curveFitting=1;jiggle=2;glass=1;shadow=1;fillColor=#b1ddf0;strokeColor=#10739e;" vertex="1" parent="1">
          <mxGeometry x="-333" y="-84.75" width="120" height="60" as="geometry" />
        </mxCell>
        <mxCell id="rmnr_J1hxA6vP5XFYLHo-46" style="edgeStyle=orthogonalEdgeStyle;rounded=0;orthogonalLoop=1;jettySize=auto;html=1;entryX=0.25;entryY=0;entryDx=0;entryDy=0;fontFamily=Helvetica;fontSize=12;fontColor=default;" edge="1" parent="1" source="rmnr_J1hxA6vP5XFYLHo-45" target="rmnr_J1hxA6vP5XFYLHo-18">
          <mxGeometry relative="1" as="geometry" />
        </mxCell>
        <mxCell id="rmnr_J1hxA6vP5XFYLHo-45" value="Occupation Search" style="rounded=1;whiteSpace=wrap;shadow=1;glass=1;comic=1;sketch=1;jiggle=2;curveFitting=1;strokeColor=#A50040;align=center;verticalAlign=middle;fontFamily=Helvetica;fontSize=12;fillColor=#3399FF;fontColor=default;html=1;" vertex="1" parent="1">
          <mxGeometry x="364.75" y="-119" width="120" height="60" as="geometry" />
        </mxCell>
        <mxCell id="rmnr_J1hxA6vP5XFYLHo-47" value="SPA APP" style="rounded=1;whiteSpace=wrap;shadow=1;glass=1;comic=1;sketch=1;jiggle=2;curveFitting=1;strokeColor=#A50040;align=center;verticalAlign=middle;fontFamily=Helvetica;fontSize=12;fillColor=#3399FF;fontColor=default;html=1;" vertex="1" parent="1">
          <mxGeometry x="-499.5" y="-84.75" width="120" height="60" as="geometry" />
        </mxCell>
        <mxCell id="rmnr_J1hxA6vP5XFYLHo-51" value="Data File(s)" style="shape=document;whiteSpace=wrap;html=1;boundedLbl=1;rounded=1;shadow=1;glass=1;comic=1;sketch=1;jiggle=2;curveFitting=1;align=center;verticalAlign=middle;fontFamily=Helvetica;fontSize=12;fillColor=#e3c800;fontColor=#000000;strokeColor=#B09500;" vertex="1" parent="1">
          <mxGeometry x="287" y="462" width="120" height="80" as="geometry" />
        </mxCell>
        <mxCell id="rmnr_J1hxA6vP5XFYLHo-54" value="JSON FILE" style="shape=document;whiteSpace=wrap;html=1;boundedLbl=1;rounded=1;shadow=1;glass=1;comic=1;sketch=1;jiggle=2;curveFitting=1;align=center;verticalAlign=middle;fontFamily=Helvetica;fontSize=12;fillColor=#e3c800;fontColor=#000000;strokeColor=#B09500;" vertex="1" parent="1">
          <mxGeometry x="-501" y="177" width="120" height="80" as="geometry" />
        </mxCell>
        <mxCell id="rmnr_J1hxA6vP5XFYLHo-58" style="edgeStyle=orthogonalEdgeStyle;rounded=0;orthogonalLoop=1;jettySize=auto;html=1;entryX=0;entryY=0.5;entryDx=0;entryDy=0;entryPerimeter=0;fontFamily=Helvetica;fontSize=12;fontColor=default;" edge="1" parent="1" source="rmnr_J1hxA6vP5XFYLHo-34" target="rmnr_J1hxA6vP5XFYLHo-16">
          <mxGeometry relative="1" as="geometry">
            <Array as="points">
              <mxPoint x="-189" y="502" />
              <mxPoint x="-189" y="108" />
            </Array>
          </mxGeometry>
        </mxCell>
      </root>
    </mxGraphModel>
  </diagram>
</mxfile>
